# xmcd
#
# Track frame offsets:
#	150
#	13936
#	26996
#	37581
#	51271
#	65310
#	75558
#	88933
#	101836
#	115856
#	134260
#	148122
#	160880
#	171125
#	184565
#	198595
#	208625
#	221595
#	234015
#	247640
#
# Disc length: 3546 seconds
#
# Revision: 0
# Processed by: cddbd v1.5.2PL0 Copyright (c) Steve Scherf et al.
# Submitted via: EasyCDDAExtractor 16.0.1.1
#
DISCID=0e0dd814
DTITLE=Waylon Jennings - Good Hearted Woman
DYEAR=1972
DGENRE=Country
TTITLE0=Good Hearted Woman
TTITLE1=The Same old Lover Man
TTITLE2=One Of My Bad Habits
TTITLE3=Willie and Laura Mae Jones
TTITLE4=It Should Be Easier Now
TTITLE5=Do No Good Woman
TTITLE6=Unsatisfied
TTITLE7=I Knew You'd Be Leavin'
TTITLE8=Sweet Dream Woman
TTITLE9=To Beat The Devil
TTITLE10=Good Hearted Woman
TTITLE11=The Same old Lover Man
TTITLE12=One Of My Bad Habits
TTITLE13=Willie and Laura Mae Jones
TTITLE14=It Should Be Easier Now
TTITLE15=Do No Good Woman
TTITLE16=Unsatisfied
TTITLE17=I Knew You'd Be Leavin'
TTITLE18=Sweet Dream Woman
TTITLE19=To Beat The Devil
EXTD=
EXTT0=
EXTT1=
EXTT2=
EXTT3=
EXTT4=
EXTT5=
EXTT6=
EXTT7=
EXTT8=
EXTT9=
EXTT10=
EXTT11=
EXTT12=
EXTT13=
EXTT14=
EXTT15=
EXTT16=
EXTT17=
EXTT18=
EXTT19=
PLAYORDER=
